<svg xmlns="http://www.w3.org/2000/svg" viewBox="0 0 512 560" width="512" height="560">
    <defs>
        <linearGradient id="amberGradient" x1="0%" y1="0%" x2="100%" y2="100%">
            <stop offset="0%" style="stop-color:#FFC107;stop-opacity:1" />
            <stop offset="100%" style="stop-color:#FF9800;stop-opacity:1" />
        </linearGradient>
        <linearGradient id="blueAccent" x1="0%" y1="0%" x2="100%" y2="100%">
            <stop offset="0%" style="stop-color:#42A5F5;stop-opacity:1" />
            <stop offset="100%" style="stop-color:#1E88E5;stop-opacity: 1" />
        </linearGradient>
        <filter id="shadow">
            <feDropShadow dx="0" dy="4" stdDeviation="8" flood-opacity="0.3"/>
        </filter>
    </defs>
    <g>
        <circle cx="256" cy="256" r="180" fill="url(#amberGradient)" filter="url(#shadow)"/>
        <circle cx="256" cy="256" r="140" fill="none" stroke="#FFFFFF" stroke-width="6" opacity="0.9"/>
        <circle cx="256" cy="256" r="120" fill="none" stroke="#FFFFFF" stroke-width="3" opacity="0.6"/>
        <line x1="256" y1="136" x2="256" y2="186" stroke="#FFFFFF" stroke-width="10" stroke-linecap="round"/>
        <line x1="256" y1="326" x2="256" y2="376" stroke="#FFFFFF" stroke-width="10" stroke-linecap="round"/>
        <line x1="136" y1="256" x2="186" y2="256" stroke="#FFFFFF" stroke-width="10" stroke-linecap="round"/>
        <line x1="326" y1="256" x2="376" y2="256" stroke="#FFFFFF" stroke-width="10" stroke-linecap="round"/>
        <line x1="196" y1="196" x2="226" y2="226" stroke="#FFFFFF" stroke-width="6" stroke-linecap="round" opacity="0.7"/>
        <line x1="316" y1="196" x2="286" y2="226" stroke="#FFFFFF" stroke-width="6" stroke-linecap="round" opacity="0.7"/>
        <line x1="196" y1="316" x2="226" y2="286" stroke="#FFFFFF" stroke-width="6" stroke-linecap="round" opacity="0.7"/>
        <line x1="316" y1="316" x2="286" y2="286" stroke="#FFFFFF" stroke-width="6" stroke-linecap="round" opacity="0.7"/>
        <circle cx="256" cy="256" r="35" fill="#FFFFFF" filter="url(#shadow)"/>
        <circle cx="256" cy="256" r="25" fill="url(#blueAccent)"/>
        <path d="M256,150 L240,185 L272,185 Z" fill="#FF6F00" filter="url(#shadow)"/>
        <circle cx="256" cy="256" r="12" fill="#FFFFFF"/>
        <path d="M256,220 C246,220 238,228 238,238 C238,248 256,265 256,265 C256,265 274,248 274,238 C274,228 266,220 256,220 Z" fill="#FF6F00" opacity="0.8"/>
    </g>
</svg>
